<svg xmlns="http://www.w3.org/2000/svg" viewBox="0 0 64 64">
  <g transform="translate(32 33)">
    <polygon points="0,-26 24,-13 24,13 0,26 -24,13 -24,-13" fill="#101014"/>
    <!-- top face -->
    <polygon points="0,-24 22,-12 0,0 -22,-12" fill="#ffd500"/>
    <line x1="-14.6" y1="-16" x2="7.4" y2="-4" stroke="#101014" stroke-width="2"/>
    <line x1="-7.4" y1="-20" x2="14.6" y2="-8" stroke="#101014" stroke-width="2"/>
    <line x1="7.4" y1="-20" x2="-14.6" y2="-8" stroke="#101014" stroke-width="2"/>
    <line x1="14.6" y1="-16" x2="-7.4" y2="-4" stroke="#101014" stroke-width="2"/>
    <!-- left face -->
    <polygon points="-22,-10 0,2 0,26 -22,14" fill="#ef3340"/>
    <line x1="-22" y1="-2" x2="0" y2="10" stroke="#101014" stroke-width="2"/>
    <line x1="-22" y1="6" x2="0" y2="18" stroke="#101014" stroke-width="2"/>
    <line x1="-14.7" y1="-6" x2="-14.7" y2="18" stroke="#101014" stroke-width="2"/>
    <line x1="-7.3" y1="-2" x2="-7.3" y2="22" stroke="#101014" stroke-width="2"/>
    <!-- right face -->
    <polygon points="22,-10 0,2 0,26 22,14" fill="#1e6fe8"/>
    <line x1="22" y1="-2" x2="0" y2="10" stroke="#101014" stroke-width="2"/>
    <line x1="22" y1="6" x2="0" y2="18" stroke="#101014" stroke-width="2"/>
    <line x1="14.7" y1="-6" x2="14.7" y2="18" stroke="#101014" stroke-width="2"/>
    <line x1="7.3" y1="-2" x2="7.3" y2="22" stroke="#101014" stroke-width="2"/>
  </g>
</svg>
